<?xml version="1.0" encoding="UTF-8"?>
<svg xmlns="http://www.w3.org/2000/svg" viewBox="0 0 200 100">
  <path d="M51.5,25.7h10.4c13.5,0,24.9,10.9,24.9,24.3c0,13.3-11.4,24.3-24.9,24.3H51.5V25.7z M113.1,25.7h21.6 c13.5,0,24.9,10.9,24.9,24.3c0,13.3-11.4,24.3-24.9,24.3h-21.6V25.7z M123.4,64.8h11.3c8.2,0,14.6-6.6,14.6-14.9 c0-8.1-6.4-14.9-14.6-14.9h-11.3V64.8z M89.3,44.1h11.4v30.2h-11.4V44.1z M89.3,25.7h11.4v10.2h-11.4V25.7z M40.1,50 c0-13.5,10.9-24.3,24.3-24.3V50c0,13.3-10.9,24.3-24.3,24.3V50z M11.3,74.3V25.7h11.4v38.9h17.1v9.7H11.3z"/>
</svg>