<?xml version="1.0" encoding="UTF-8"?>
<svg xmlns="http://www.w3.org/2000/svg" viewBox="0 0 300 100">
  <path d="M24.8,14.4h101.7l57.5,37.2l-57.5,34.1H24.8V14.4z M72.6,40.9l-18.4,26h20.1l8.5-12.4l8.5,12.4h20.2l-18.4-26 l17-22.3H89.8L80.5,29.7l-9.3-11.1H51.1L72.6,40.9z M141.8,66.9h14.5l16.3-14.7v14.7h11.7l3.3-3.7v-17h-11.7v-9.2h13.2v-9.1h-13.2 v-9.8H187L183.6,14h-24v24.2l-17.8,15.8V66.9z M201.2,31.4h13.3l-1.7,35.5h-9.5L201.2,31.4z M236.7,35l-3.4-3.6h-11v35.5h13.1 V49.8h8.6v17.1h13.1V35h-8.6V24.4h-1.2L236.7,35z M206.7,14l-5.6,11.4h10.4l5.6-11.4H206.7z" />
</svg>