<?xml version="1.0" encoding="UTF-8"?>
<svg xmlns="http://www.w3.org/2000/svg" viewBox="0 0 200 100">
  <path d="M30.2,33.5h15.5c6.3,0,11.4,5.1,11.4,11.4c0,6.3-5.1,11.4-11.4,11.4h-4v10.1H30.2V33.5z M41.7,47.9h3.9 c1.7,0,3.1-1.4,3.1-3.1c0-1.7-1.4-3.1-3.1-3.1h-3.9V47.9z M59.6,33.5h11.5v22.8h11.1v10.1H59.6V33.5z M84.3,33.5h26.7v10.1H95.8 v1.6h15.1v8.5H95.8v2.5h15.1v10.1H84.3V33.5z M116.1,33.5h11.1c12.7,0,19.1,5.5,19.1,16.4c0,12.3-8.5,16.4-20.4,16.4h-9.8V33.5z M127.6,56.4h0.2c4.2,0,7-1.5,7-6.6c0-4.7-2.7-6.6-7-6.6h-0.2V56.4z M155.7,52.2c0,10.1,4.6,14.8,14.1,14.8V56.4h-7v-7.9h17.7 c0.1,0.7,0.1,1.4,0.1,2.2c0,16.1-9.9,21.6-24.3,21.6c-16.7,0-25-6.4-25-21.5c0-14.4,9.4-19.4,23.3-19.4 C169.7,31.3,174.9,40.2,155.7,52.2z"/>
</svg>