<?xml version="1.0" encoding="UTF-8"?>
<svg xmlns="http://www.w3.org/2000/svg" viewBox="0 0 200 100">
  <path d="M174.1,48.6h-15.8c-2.3,0-4.5,1.5-5.4,3.6l-10.5,24.6c-0.9,2.1,0.3,3.6,2.5,3.6H160c2.3,0,4.5-1.5,5.4-3.6l10.5-24.6 C176.8,50.2,175.7,48.6,174.1,48.6z M155.9,48.7h-15.8c-2.3,0-4.5,1.5-5.4,3.6l-10.5,24.6c-0.9,2.1,0.3,3.6,2.5,3.6h15.1 c2.3,0,4.5-1.5,5.4-3.6l10.5-24.6C158.6,50.3,157.5,48.7,155.9,48.7z M123.7,48.6H95L84.2,73.9c-0.9,2.1,0.3,3.6,2.5,3.6h16.1 c2.3,0,4.5-1.5,5.4-3.6l9-21.1l6.6,24.7h15.4L126.3,52C125.6,50,124.6,48.6,123.7,48.6z M82.2,30.4c0-1.8-0.9-3-2.9-3h-14 c-2,0-3.9,1.2-4.7,3L36.3,77c-0.8,1.8,0.1,3,2.1,3h14c2,0,3.9-1.2,4.7-3l13.9-28.8L54.8,30.4h14.3l8.8,11.7L87.2,30 c0.8-1.7-0.6-2.6-1.7-2.6h-3.3V30.4z"/>
</svg>