<?xml version="1.0" encoding="UTF-8" standalone="no"?>
<svg width="500" height="500" viewBox="0 0 500 500" fill="none" xmlns="http://www.w3.org/2000/svg">
  <!-- Background Gradient - Blue for 250 class -->
  <rect width="500" height="500" fill="url(#bg-gradient-250)"/>
  
  <!-- Motocross Rider Silhouette -->
  <g transform="translate(70, 90) scale(0.7)">
    <!-- Motorcycle -->
    <path d="M370.5,308.3c-14.8,0-28.1,5.6-38.3,14.5c-4.6-12.8-14.6-23-27.3-27.8l-59.3-22.1c-3.8-1.4-8-2.2-12.5-2.2
      c-13.1,0-24.2,6.6-29.8,16.3l-75.6-28.1c-2.4-0.9-5-1.3-7.6-1.3c-10.9,0-20.2,7.5-21.8,17.6l-48.6-18.1c-2.4-0.9-5-1.3-7.6-1.3
      c-11.6,0-21,9-21,20.1c0,8.6,5.7,15.9,13.8,19l53.1,19.7c0.3,11,7.7,20.4,18.3,23.5l75.6,28.1c2.4,0.9,5,1.3,7.6,1.3
      c5.1,0,9.8-1.6,13.6-4.3l61.4,22.9c2.4,0.9,5,1.3,7.6,1.3c11.6,0,21-9,21-20.1c0-2.1-0.4-4.2-1-6.1c11.5,10.3,26.6,16.5,43.3,16.5
      c36,0,65.1-28.3,65.1-63.2S406.5,308.3,370.5,308.3z M95.1,330.3c-5.3,0-9.6-4.2-9.6-9.3c0-5.1,4.3-9.3,9.6-9.3
      c5.3,0,9.6,4.2,9.6,9.3C104.7,326.1,100.4,330.3,95.1,330.3z M370.5,418c-27.1,0-49.1-21.2-49.1-47.4c0-26.2,22-47.4,49.1-47.4
      c27.1,0,49.1,21.2,49.1,47.4C419.6,396.8,397.6,418,370.5,418z" 
      fill="#333333"/>
    
    <!-- Rider -->
    <path d="M318.4,284.5l-10.4-31.1l-44.5-93.7c-1.4-2.9-3.9-5.1-7-6.1l-32.1-10.5c-2.3-0.8-4.7-0.9-7-0.4l-39.3,8.5
      c-5.4,1.2-9.1,6-8.8,11.5l3.9,70.9l-56.9-21.2c-2.4-0.9-5-1.3-7.6-1.3c-11.6,0-21,9-21,20.1c0,8.6,5.7,15.9,13.8,19l64.9,24.2
      c2.4,0.9,5,1.3,7.6,1.3c11.6,0,21-9,21-20.1c0-1-0.1-2-0.2-2.9l29.5,6.6c1.1,0.2,2.2,0.4,3.3,0.4c4.2,0,8.2-1.7,11.1-4.8l35.6-38.3
      l27.8,61.3c0.3,0.7,0.7,1.3,1.1,1.9c-2.8,0.6-5.4,1.7-7.8,3.3l-48.9-18.2c-2.4-0.9-5-1.3-7.6-1.3c-11.6,0-21,9-21,20.1
      c0,8.6,5.7,15.9,13.8,19l53.8,20c2.4,0.9,5,1.3,7.6,1.3c11.6,0,21-9,21-20.1C331.3,296.3,326.1,289.3,318.4,284.5z M172.5,251.5
      c-5.3,0-9.6-4.2-9.6-9.3c0-5.1,4.3-9.3,9.6-9.3c5.3,0,9.6,4.2,9.6,9.3C182.1,247.3,177.8,251.5,172.5,251.5z M264.6,304.5
      c-5.3,0-9.6-4.2-9.6-9.3c0-5.1,4.3-9.3,9.6-9.3c5.3,0,9.6,4.2,9.6,9.3C274.2,300.3,269.9,304.5,264.6,304.5z"
      fill="#222222"/>
  </g>
  
  <!-- Rider Number Display -->
  <g transform="translate(250, 410)" text-anchor="middle">
    <text font-family="Arial, sans-serif" font-size="120" font-weight="900" fill="white" stroke="#000000" stroke-width="8" paint-order="stroke fill">
      #250
    </text>
  </g>
  
  <!-- Manufacturer/Sponsor Logo Area -->
  <g transform="translate(250, 90)" text-anchor="middle">
    <rect x="-100" y="-30" width="200" height="60" rx="10" fill="rgba(0,0,0,0.7)"/>
    <text font-family="Arial, sans-serif" font-size="40" font-weight="bold" fill="white">
      250 CLASS
    </text>
  </g>
  
  <!-- Class Indicator -->
  <g transform="translate(420, 50)">
    <circle cx="0" cy="0" r="40" fill="#005fdb"/>
    <text font-family="Arial, sans-serif" font-size="32" font-weight="bold" fill="white" text-anchor="middle" dominant-baseline="middle">
      250
    </text>
  </g>
  
  <!-- Dirt effect overlay -->
  <g opacity="0.3">
    <rect width="500" height="500" fill="url(#dirt-texture)"/>
  </g>
  
  <!-- Gradients and Textures -->
  <defs>
    <linearGradient id="bg-gradient-250" x1="0%" y1="0%" x2="100%" y2="100%">
      <stop offset="0%" stop-color="#005fdb" />
      <stop offset="100%" stop-color="#003580" />
    </linearGradient>
    
    <pattern id="dirt-texture" patternUnits="userSpaceOnUse" width="100" height="100" patternTransform="scale(5) rotate(45)">
      <rect width="100" height="100" fill="none"/>
      <circle cx="10" cy="10" r="1.5" fill="#ffffff" opacity="0.1"/>
      <circle cx="40" cy="30" r="1" fill="#ffffff" opacity="0.1"/>
      <circle cx="70" cy="50" r="2" fill="#ffffff" opacity="0.1"/>
      <circle cx="20" cy="70" r="1.2" fill="#ffffff" opacity="0.1"/>
      <circle cx="90" cy="90" r="1.8" fill="#ffffff" opacity="0.1"/>
    </pattern>
  </defs>
</svg>