<svg width="800" height="400" xmlns="http://www.w3.org/2000/svg">
  <rect width="800" height="400" fill="#1a1a1a"/>
  <!-- Rider silhouette -->
  <path d="M500,130 C500,115 480,110 470,120 C460,130 455,140 450,150 C445,160 435,165 425,165 C415,165 410,160 400,155 C390,150 385,155 380,160 C375,165 370,175 360,180 C350,185 330,185 320,180 C310,175 295,165 290,160 C285,155 265,155 255,165 C245,175 240,190 245,200 C250,210 260,225 265,230 C270,235 280,240 285,245 C290,250 300,260 305,265 C310,270 320,275 325,280 C330,285 340,290 350,290 C360,290 375,285 385,280 C395,275 405,265 410,260 C415,255 420,245 425,240 C430,235 440,230 450,230 C460,230 475,235 485,245 C495,255 500,270 500,280 C500,290 495,300 490,305 C485,310 475,315 470,320 C465,325 455,330 445,330 C435,330 420,325 410,320 C400,315 385,305 375,300 C365,295 345,290 335,290 C325,290 310,295 300,300 C290,305 280,315 275,320 C270,325 265,335 265,345 C265,355 270,370 280,380 C290,390 310,400 330,400 C350,400 375,390 390,380 C405,370 420,350 425,340 C430,330 435,315 440,310 C445,305 455,300 465,300 C475,300 490,305 500,315" 
        stroke="#e63946" stroke-width="4" fill="none"/>
  <!-- Motorcycle silhouette -->
  <path d="M295,320 C285,320 270,330 265,340 C260,350 265,365 275,370 C285,375 300,365 305,355 C310,345 305,330 295,320 Z" 
        fill="#f1faee"/>
  <path d="M390,320 C380,320 365,330 360,340 C355,350 360,365 370,370 C380,375 395,365 400,355 C405,345 400,330 390,320 Z" 
        fill="#f1faee"/>
  <path d="M340,150 C335,155 330,165 330,175 C330,185 335,200 345,210 C355,220 370,225 380,220 C390,215 395,200 390,190 C385,180 370,175 360,180" 
        stroke="#f1faee" stroke-width="4" fill="none"/>
  <!-- Number plate -->
  <rect x="320" y="160" width="60" height="40" rx="5" fill="#457b9d"/>
  <text x="350" y="190" font-family="Arial" font-size="24" font-weight="bold" fill="#f1faee" text-anchor="middle" dominant-baseline="middle">94</text>
  <!-- Text -->
  <text x="400" y="80" font-family="Arial" font-size="36" font-weight="bold" fill="#f1faee" text-anchor="middle" dominant-baseline="middle">RIDER PROFILE</text>
</svg>